<svg xmlns="http://www.w3.org/2000/svg" viewBox="0 0 512 512">
  <rect width="512" height="512" rx="112" fill="#114b5f"/>
  <circle cx="384" cy="126" r="54" fill="#f4d35e"/>
  <path fill="#ffffff" d="M256 92c-25 0-46 19-46 42h34c0-5 5-10 12-10s12 5 12 11c0 7-6 12-18 19-12 7-20 17-20 31v12h52v-14c0-5 5-9 17-16 16-10 27-20 27-39 0-21-19-36-70-36Z"/>
  <path fill="#dff7ef" d="M150 202 248 146c5-3 11-3 16 0l98 56c12 7 16 23 9 35l-19 31c-5 9-16 13-26 9l-18-7v111c0 18-14 32-32 32h-40c-18 0-32-14-32-32V270l-18 7c-10 4-21 0-26-9l-19-31c-7-12-3-28 9-35Z"/>
  <path fill="#114b5f" d="M220 244h72v28h-72zM220 292h32v28h-32zM260 292h32v28h-32zM220 340h32v28h-32zM260 340h32v28h-32z"/>
  <path fill="#ffffff" opacity=".9" d="M164 122h184v26H164z"/>
</svg>
